# xmcd
#
# Track frame offsets:
#	150
#	22677
#	37945
#	56640
#	77520
#	95077
#	115029
#	142790
#	161952
#	182427
#
# Disc length: 2642 seconds
#
# Revision: 2
# Processed by: cddbd v1.5.2PL0 Copyright (c) Steve Scherf et al.
# Submitted via: EasyCDDAExtractor 2011.0.0.0
#
DISCID=6e0a500a
DTITLE=Various Artist - FURACÃO 2000
DYEAR=1995
DGENRE=Blues
TTITLE0=STEVIE B - FUNK MELODY (BY DJ GILMAR SINISTRO)
TTITLE1=SHANTELL AND DWAYNE - RING MY PHONE (MELÔ DO MACONHEIRO) (BY DJ GILMAR
TTITLE1=SINISTRO)
TTITLE2=DJ RONNIE RAP - MONTAGEM-DA BUNDINHA (BY DJ GILMAR SINISTRO)
TTITLE3=LINEAR - SENDING ALL MY LOVE (BY DJ GILMAR SINISTRO)
TTITLE4=MC MARCELO E MC PADILHA - PARE E PENSE (BY DJ GILMAR SINISTRO)
TTITLE5=DJ PEPÊ - MELÔ DO GAITEIRO II (BY DJ GILMAR SINISTRO)
TTITLE6=STEVIE B - SPRING LOVE (BY DJ GILMAR SINISTRO)
TTITLE7=DINA - WHEN YOUR X WANT YOU BACK (BY DJ GILMAR SINISTRO
TTITLE8=DR. JECKILL AND MR. HYDE - THE CHALLENGE (BY DJ GILMAR SINISTRO)
TTITLE9=KAT - DO YOU WANNA GO PARTY (BY DJ GILMAR SINISTRO)
EXTD=\n\n
EXTT0=
EXTT1=
EXTT2=
EXTT3=
EXTT4=
EXTT5=
EXTT6=
EXTT7=
EXTT8=
EXTT9=
PLAYORDER=
